<?xml version="1.0" encoding="utf-8"?>
<!-- Generator: Adobe Illustrator 27.9.4, SVG Export Plug-In . SVG Version: 9.03 Build 54784)  -->
<svg version="1.1" id="Capa_1" xmlns="http://www.w3.org/2000/svg" xmlns:xlink="http://www.w3.org/1999/xlink" x="0px" y="0px"
	 viewBox="0 0 305.4 108.7" style="enable-background:new 0 0 305.4 108.7;" xml:space="preserve">
<style type="text/css">
	.st0{clip-path:url(#SVGID_00000058569276030481596150000003992027070058759337_);}
	.st1{fill:#21212E;}
	.st2{fill:url(#SVGID_00000105404337303560852300000011013441576907051703_);}
	.st3{fill:url(#SVGID_00000059991618162142334910000000198241685895345537_);}
	.st4{fill:url(#SVGID_00000013907524943231782550000001905193838965990312_);}
</style>
<g>
	<g>
		<defs>
			<rect id="SVGID_1_" x="12.9" y="14.6" width="275.7" height="79.1"/>
		</defs>
		<clipPath id="SVGID_00000074438382402992367960000000766569580096866188_">
			<use xlink:href="#SVGID_1_"  style="overflow:visible;"/>
		</clipPath>
		<g style="clip-path:url(#SVGID_00000074438382402992367960000000766569580096866188_);">
			<path class="st1" d="M281.4,18.3c0.5-0.1,1.1-0.1,1.6-0.1c0.6-0.1,1.3,0.1,1.8,0.5c0.3,0.3,0.5,0.7,0.5,1.2
				c0,0.7-0.4,1.3-1.1,1.5l0,0c0.4,0.2,0.8,0.7,0.8,1.1c0.1,0.6,0.3,1.1,0.5,1.6h-1.1c-0.2-0.5-0.3-0.9-0.4-1.4
				c-0.2-0.8-0.4-1-1.1-1h-0.5v2.4h-1.1v-5.8H281.4z M282.5,20.9h0.6c0.7,0,1.2-0.4,1.2-1s-0.5-0.9-1.1-0.9c-0.2,0-0.4,0-0.7,0.1
				V20.9L282.5,20.9z"/>
			<path class="st1" d="M104.9,63.5l-14.5-20L85,49.1v14.3H74.8V16.6H85v20.5l18.9-20.5h12.4l-19,19.9l19.9,27H104.9z"/>
			<path class="st1" d="M142.6,63.5v-5.1c-2.3,3-5.3,5.8-10.5,5.8c-7.7,0-12.1-5.1-12.1-13.3V27.6h10.1v20c0,4.8,2.3,7.3,6.1,7.3
				c3.9,0,6.3-2.5,6.3-7.3v-20h10.1v35.9H142.6L142.6,63.5z"/>
			<path class="st1" d="M186.8,63.5v-5.2c-2.5,3.7-6.7,5.9-11.1,5.8c-8.3,0-16.3-6.6-16.3-18.6v-0.1c0-12,7.8-18.6,16.3-18.6
				c4.3-0.1,8.5,1.9,11.1,5.4V14.6h10.1v48.9H186.8L186.8,63.5z M186.9,45.4c0-6-3.9-9.9-8.7-9.9s-8.7,3.9-8.7,9.9v0.1
				c0,6,4,9.9,8.7,9.9S186.9,51.4,186.9,45.4L186.9,45.4z"/>
			<path class="st1" d="M222.8,64.3c-11.1,0-19.3-8.2-19.3-18.6v-0.1c0-10.3,8.3-18.7,19.4-18.7c11.1,0,19.3,8.2,19.3,18.6v0.1
				C242.1,55.9,233.9,64.3,222.8,64.3z M232.1,45.6c0.2-5.3-3.9-9.7-9.1-9.9c-0.1,0-0.2,0-0.3,0c-5.8,0-9.3,4.5-9.3,9.8v0.1
				c-0.2,5.3,3.9,9.7,9.1,9.9c0.1,0,0.2,0,0.3,0C228.6,55.5,232.1,51,232.1,45.6L232.1,45.6L232.1,45.6z"/>
			<path class="st1" d="M261.2,64.1c-5.6,0-11-2-15.3-5.4l4.3-6.7c3.2,2.5,7.2,4,11.3,4.3c2.9,0,4.3-1.1,4.3-2.7v-0.1
				c0-2.2-3.5-2.9-7.4-4.2c-5-1.5-10.7-3.8-10.7-10.8v-0.1c0-7.3,5.9-11.4,13.1-11.4c4.7,0.1,9.4,1.5,13.3,4.2l-3.9,7
				c-2.9-1.9-6.2-3-9.7-3.3c-2.5,0-3.7,1.1-3.7,2.5v0.1c0,2,3.4,2.9,7.3,4.3c5,1.7,10.8,4.1,10.8,10.7v0.1
				C274.9,60.5,269,64.1,261.2,64.1L261.2,64.1z"/>
			<path class="st1" d="M160.6,85.7L160.6,85.7c-0.1-4.3,3.2-7.9,7.5-8c0.1,0,0.2,0,0.2,0c2.2-0.1,4.4,0.8,6,2.4l-1.2,1.3
				c-1.2-1.3-3-2.1-4.8-2.1c-3.3,0-6,2.8-5.9,6.1c0,0.1,0,0.1,0,0.2l0,0c-0.2,3.3,2.4,6.2,5.7,6.3c0.1,0,0.1,0,0.2,0
				c1.9,0,3.7-0.8,4.9-2.2l1.1,1.1c-1.5,1.8-3.8,2.7-6.1,2.7c-4.2,0-7.6-3.4-7.7-7.6C160.6,85.9,160.6,85.8,160.6,85.7L160.6,85.7z"
				/>
			<path class="st1" d="M176.2,87.7L176.2,87.7c0-3.3,2.6-6,5.9-6c3.2,0,5.9,2.6,5.9,5.9l0,0c0,3.3-2.6,5.9-5.8,5.9c0,0,0,0-0.1,0
				c-3.2,0-5.8-2.5-5.8-5.7C176.2,87.8,176.2,87.8,176.2,87.7L176.2,87.7z M186.2,87.7L186.2,87.7c0.1-2.4-1.8-4.4-4.1-4.5
				c0,0,0,0-0.1,0c-2.3,0-4.1,1.9-4.1,4.2c0,0.1,0,0.1,0,0.2l0,0c-0.1,2.3,1.7,4.3,4.1,4.4h0.1C184.4,92,186.3,90.1,186.2,87.7
				C186.2,87.8,186.2,87.8,186.2,87.7L186.2,87.7z"/>
			<path class="st1" d="M191,82h1.7v1.9c0.7-1.3,2.1-2.2,3.6-2.1c1.5-0.1,3,0.8,3.6,2.3c0.8-1.4,2.3-2.3,4-2.3
				c2.6,0,4.2,1.8,4.2,4.6v7h-1.7v-6.6c0-2.2-1.1-3.4-2.9-3.4c-1.7,0-3.1,1.4-3.1,3.2c0,0.1,0,0.2,0,0.3v6.5h-1.7v-6.7
				c0-2.1-1.1-3.4-2.9-3.4c-1.8,0.1-3.2,1.6-3.1,3.4c0,0.1,0,0.1,0,0.2v6.5H191V82L191,82z"/>
			<path class="st1" d="M211.7,82h1.7v1.9c0.7-1.3,2.1-2.2,3.6-2.1c1.5-0.1,3,0.8,3.6,2.3c0.8-1.4,2.3-2.3,4-2.3
				c2.6,0,4.2,1.8,4.2,4.6v7h-1.7v-6.6c0-2.2-1.1-3.4-2.9-3.4c-1.7,0-3.1,1.4-3.1,3.2c0,0.1,0,0.2,0,0.3v6.5h-1.7v-6.7
				c0-2.1-1.1-3.4-2.9-3.4c-1.8,0.1-3.2,1.6-3.1,3.4c0,0.1,0,0.1,0,0.2v6.5h-1.7L211.7,82L211.7,82z"/>
			<path class="st1" d="M237.4,92.1c1.4,0,2.7-0.6,3.6-1.6l1,0.9c-1.1,1.4-2.9,2.2-4.6,2.1c-3.3-0.2-5.8-2.9-5.6-6.2
				c0.1-3,2.4-5.4,5.4-5.6c3.3,0,5.3,2.7,5.3,6c0,0.2,0,0.3,0,0.6h-8.9C233.6,90.5,235.3,92.2,237.4,92.1L237.4,92.1z M240.7,87
				c-0.2-2.1-1.4-3.8-3.6-3.8c-2,0.1-3.6,1.8-3.7,3.8H240.7L240.7,87z"/>
			<path class="st1" d="M245.4,82h1.7v3c0.7-1.9,2.6-3.2,4.6-3.2v1.8h-0.1c-2.5,0-4.5,1.8-4.5,5.2v4.5h-1.7V82L245.4,82z"/>
			<path class="st1" d="M253,87.7L253,87.7c0-3.3,2.6-6,5.9-6c1.7,0,3.3,0.7,4.4,2l-1.1,1.2c-0.8-1-2.1-1.7-3.4-1.7
				c-2.3,0.1-4.1,2-4,4.3v0.1l0,0c-0.1,2.3,1.7,4.3,4,4.4h0.1c1.3,0,2.6-0.7,3.4-1.7l1.1,1c-2,2.5-5.7,2.9-8.2,0.9
				C253.8,91.2,253,89.5,253,87.7L253,87.7z"/>
			<path class="st1" d="M270.8,92.1c1.4,0,2.7-0.6,3.6-1.6l1,0.9c-1.1,1.4-2.9,2.2-4.6,2.1c-3.3-0.2-5.8-2.9-5.6-6.2
				c0.1-3,2.4-5.4,5.4-5.6c3.3,0,5.3,2.7,5.3,6c0,0.2,0,0.3,0,0.6H267C267,90.5,268.7,92.2,270.8,92.1L270.8,92.1z M274.1,87
				c-0.2-2.1-1.4-3.8-3.6-3.8c-2,0.1-3.6,1.8-3.7,3.8H274.1L274.1,87z"/>
			
				<linearGradient id="SVGID_00000145059858923181144690000006136994717345453982_" gradientUnits="userSpaceOnUse" x1="46.5184" y1="696.1298" x2="60.3422" y2="696.1298" gradientTransform="matrix(1 0 0 1 0 -669.8298)">
				<stop  offset="0" style="stop-color:#E45250"/>
				<stop  offset="1" style="stop-color:#E76036"/>
			</linearGradient>
			<path style="fill:url(#SVGID_00000145059858923181144690000006136994717345453982_);" d="M59.9,30.6L60,19.5
				c-0.5-1.8-2.1-3.1-3.9-3.1l-16-0.1l14.3,20L59.9,30.6z"/>
			
				<linearGradient id="SVGID_00000175299695948540002150000007331672667901022386_" gradientUnits="userSpaceOnUse" x1="46.6394" y1="723.1298" x2="59.3936" y2="723.1298" gradientTransform="matrix(1 0 0 1 0 -669.8298)">
				<stop  offset="0" style="stop-color:#FF6422"/>
				<stop  offset="1" style="stop-color:#E76036"/>
			</linearGradient>
			<path style="fill:url(#SVGID_00000175299695948540002150000007331672667901022386_);" d="M40.6,63.5l15.1,0.1c1.9,0,3.5-1.2,4-3
				L59.8,43L40.6,63.5z"/>
			
				<linearGradient id="SVGID_00000000910506907127682760000001566379715304666286_" gradientUnits="userSpaceOnUse" x1="18.2819" y1="709.7686" x2="41.9729" y2="709.2791" gradientTransform="matrix(1 0 0 1 0 -669.8298)">
				<stop  offset="0" style="stop-color:#EF4946"/>
				<stop  offset="1" style="stop-color:#E76036"/>
			</linearGradient>
			<path style="fill:url(#SVGID_00000000910506907127682760000001566379715304666286_);" d="M17,63.4l10.9,0.1l19.2-19.9L27.3,16.3
				l-10-0.1c-2.3,0-4.1,1.8-4.1,4.1L13,59.2C12.9,61.5,14.7,63.4,17,63.4L17,63.4z"/>
			<path class="st1" d="M283.4,26.6c-2.9,0-5.3-2.4-5.3-5.3s2.4-5.3,5.3-5.3s5.3,2.4,5.3,5.3S286.3,26.6,283.4,26.6z M283.4,16.8
				c-2.5,0-4.5,2-4.5,4.5s2,4.5,4.5,4.5s4.5-2,4.5-4.5S285.9,16.8,283.4,16.8z"/>
		</g>
	</g>
</g>
</svg>
